<?xml version="1.0" encoding="utf-8"?>
<!-- Generator: Adobe Illustrator 27.5.0, SVG Export Plug-In . SVG Version: 6.00 Build 0)  -->
<svg version="1.1" xmlns="http://www.w3.org/2000/svg" xmlns:xlink="http://www.w3.org/1999/xlink" x="0px" y="0px"
	 viewBox="0 0 1911 2094.125" style="enable-background:new 0 0 1911 2094.125;" xml:space="preserve">
<g id="Bg">
	<rect style="opacity:0;fill:#FFFFFF;" width="1911" height="2094.12"/>
</g>
<g id="Layer_1">
	<g>
		<g>
			<path style="fill:#2672AB;" d="M1042.889,1820.304l-783.136-452.142c-13.78-7.957-20.65-18.56-20.873-29.697
				c-0.006-0.356-0.007-38.439,0-38.797c0.248-13.536,10.249,9.97,29.535-1.165l444.444-256.6
				c35.71-20.617,89.728-22.856,120.654-5.001l783.136,452.142c10.323,5.96,17.811-19.339,20.489-11.296
				c0.892,2.68,0.323,38.172,0.382,40.952c0.295,13.866-9.719,28.563-29.534,40.003l-444.445,256.601
				C1127.832,1835.922,1073.814,1838.159,1042.889,1820.304z"/>
			<path style="fill:#D1EBFF;" d="M1042.889,1782.229l-783.136-452.144c-30.925-17.854-27.048-49.041,8.662-69.66l444.444-256.601
				c35.71-20.616,89.728-22.855,120.654-5.001l783.136,452.143c30.925,17.855,27.047,49.043-8.663,69.66l-444.445,256.6
				C1127.832,1797.844,1073.814,1800.085,1042.889,1782.229z"/>
			<path style="fill:#2672AB;" d="M1042.889,1820.304c30.924,17.857,84.944,15.615,120.653-5.001v-38.077
				c-35.709,20.618-89.729,22.856-120.653,5.002V1820.304z"/>
			<path style="fill:#2672AB;" d="M1042.889,1782.229l-783.136-452.144c-14.953-8.633-21.693-20.387-20.709-32.551
				c-0.094,0.577-0.149,1.281-0.164,2.134c-0.006,0.358-0.006,38.44,0,38.797c0.223,11.135,7.092,21.74,20.873,29.697
				l783.136,452.142V1782.229z"/>
			<path style="fill:#D1EBFF;" d="M1607.986,1514.161l-444.445,256.6c-35.709,20.618-89.728,22.855-120.653,5.001L259.753,1323.62
				c-12.83-7.407-19.579-17.118-20.641-27.408c-1.606,12.635,5.145,24.927,20.641,33.873l783.136,452.144
				c30.925,17.855,84.944,15.615,120.653-5.002l444.445-256.6c20.895-12.063,30.801-27.738,29.303-42.251
				C1635.691,1490.956,1625.803,1503.875,1607.986,1514.161z"/>
			<path style="fill:#D1EBFF;" d="M864.62,1624.279l-278.714-160.915c-5.581-3.222-4.88-8.851,1.564-12.571l104.64-60.416
				c6.445-3.72,16.193-4.124,21.774-0.902l278.714,160.917c5.581,3.222,4.881,8.85-1.563,12.571l-104.641,60.414
				C879.949,1627.097,870.201,1627.502,864.62,1624.279z"/>
			<path style="fill:#D1EBFF;" d="M587.47,1457.4l104.64-60.414c6.444-3.721,16.194-4.124,21.774-0.903l278.715,160.915
				c1.141,0.661,1.953,1.437,2.574,2.262c2.106-3.147,1.353-6.6-2.575-8.868l-278.714-160.917c-5.58-3.222-15.33-2.818-21.774,0.902
				l-104.64,60.416c-5.128,2.96-6.55,7.11-4.137,10.311C584.219,1459.78,585.56,1458.503,587.47,1457.4z"/>
			<path style="fill:#4F9FDB;" d="M782.533,1056.93l48.034,27.73c6.109,3.528,15.981,3.546,22.051,0.041
				c6.07-3.506,6.039-9.204-0.069-12.731l-48.033-27.732c-6.109-3.526-15.981-3.544-22.052-0.039
				C776.394,1047.702,776.425,1053.402,782.533,1056.93z M864.774,1104.411l22.753,13.136c6.109,3.526,15.981,3.544,22.051,0.04
				c6.071-3.506,6.039-9.205-0.069-12.731l-22.753-13.136c-6.109-3.526-15.981-3.544-22.051-0.04
				C858.635,1095.184,858.666,1100.885,864.774,1104.411z M921.734,1137.297l22.752,13.136c6.11,3.527,15.982,3.543,22.052,0.04
				c6.07-3.505,6.039-9.206-0.068-12.731l-22.753-13.136c-6.108-3.527-15.981-3.544-22.052-0.04
				C915.595,1128.071,915.627,1133.771,921.734,1137.297z M978.695,1170.182l22.753,13.136c6.109,3.528,15.981,3.545,22.051,0.041
				c6.071-3.506,6.039-9.206-0.069-12.731l-22.753-13.136c-6.109-3.528-15.981-3.544-22.051-0.041
				C972.555,1160.957,972.586,1166.656,978.695,1170.182z M1035.655,1203.07l22.752,13.135c6.11,3.526,15.982,3.545,22.052,0.04
				c6.071-3.505,6.039-9.204-0.068-12.731l-22.754-13.135c-6.108-3.526-15.98-3.545-22.051-0.041
				C1029.516,1193.843,1029.546,1199.542,1035.655,1203.07z M1092.615,1235.956l22.753,13.136c6.109,3.526,15.981,3.543,22.052,0.04
				c6.07-3.506,6.038-9.206-0.069-12.732l-22.754-13.136c-6.108-3.525-15.98-3.544-22.051-0.039
				C1086.476,1226.728,1086.507,1232.428,1092.615,1235.956z M1149.576,1268.841l22.752,13.136c6.11,3.527,15.981,3.544,22.051,0.04
				c6.071-3.505,6.041-9.205-0.069-12.731l-22.752-13.136c-6.11-3.526-15.981-3.544-22.051-0.04
				C1143.436,1259.614,1143.467,1265.314,1149.576,1268.841z M1206.535,1301.727l22.753,13.136
				c6.109,3.526,15.981,3.545,22.052,0.04c6.07-3.505,6.038-9.205-0.069-12.731l-22.754-13.136
				c-6.108-3.526-15.98-3.544-22.051-0.04C1200.396,1292.5,1200.428,1298.2,1206.535,1301.727z M1263.496,1334.614l22.753,13.135
				c6.108,3.526,15.98,3.544,22.052,0.039c6.07-3.504,6.039-9.204-0.07-12.731l-22.752-13.135
				c-6.109-3.525-15.981-3.544-22.051-0.04C1257.357,1325.386,1257.387,1331.087,1263.496,1334.614z M1320.457,1367.499
				l22.752,13.137c6.109,3.526,15.982,3.544,22.052,0.04c6.07-3.505,6.039-9.205-0.069-12.731l-22.753-13.136
				c-6.109-3.526-15.981-3.545-22.051-0.04C1314.317,1358.272,1314.347,1363.973,1320.457,1367.499z M1377.416,1400.385
				l22.753,13.136c6.109,3.526,15.981,3.544,22.051,0.04c6.071-3.505,6.039-9.205-0.069-12.731l-22.752-13.137
				c-6.109-3.527-15.981-3.544-22.051-0.04C1371.278,1391.159,1371.307,1396.859,1377.416,1400.385z M1434.377,1433.271
				l22.753,13.136c6.108,3.525,15.98,3.544,22.051,0.039c6.069-3.503,6.039-9.204-0.069-12.731l-22.753-13.136
				c-6.109-3.526-15.981-3.543-22.052-0.04C1428.237,1424.045,1428.269,1429.745,1434.377,1433.271z M1492.522,1466.841
				l22.753,13.136c6.109,3.526,15.981,3.544,22.051,0.04c6.071-3.505,6.039-9.205-0.069-12.731l-22.752-13.136
				c-6.109-3.526-15.981-3.544-22.052-0.04C1486.383,1457.615,1486.413,1463.315,1492.522,1466.841z M731.303,1088.271L751,1099.644
				c6.951,4.013,18.189,4.033,25.097,0.045l19.575-11.302c6.909-3.987,6.873-10.476-0.078-14.489l-19.697-11.372
				c-6.952-4.013-18.189-4.034-25.097-0.046l-19.575,11.302C724.316,1077.771,724.35,1084.257,731.303,1088.271z M833.058,1132.575
				l19.575-11.301c6.909-3.989,6.874-10.477-0.078-14.49l-19.697-11.372c-6.951-4.013-18.188-4.034-25.097-0.046l-19.575,11.302
				c-6.909,3.989-6.873,10.476,0.078,14.49l19.697,11.371C814.913,1136.543,826.149,1136.563,833.058,1132.575z M845.223,1154.043
				l19.698,11.372c6.951,4.013,18.188,4.034,25.096,0.046l19.575-11.302c6.909-3.989,6.873-10.476-0.078-14.489l-19.697-11.372
				c-6.952-4.014-18.188-4.034-25.097-0.046l-19.575,11.301C838.236,1143.542,838.272,1150.03,845.223,1154.043z M902.184,1186.929
				l19.697,11.372c6.952,4.013,18.189,4.034,25.097,0.046l19.575-11.302c6.91-3.989,6.873-10.476-0.078-14.489l-19.697-11.373
				c-6.951-4.014-18.188-4.033-25.097-0.045l-19.575,11.302C895.197,1176.427,895.232,1182.916,902.184,1186.929z
				 M1023.435,1205.442l-19.697-11.372c-6.952-4.013-18.187-4.034-25.097-0.046l-19.575,11.302
				c-6.908,3.988-6.873,10.475,0.08,14.488l19.696,11.373c6.953,4.014,18.189,4.034,25.097,0.046l19.576-11.302
				C1030.422,1215.943,1030.387,1209.456,1023.435,1205.442z M1080.395,1238.327l-19.697-11.371
				c-6.952-4.014-18.188-4.034-25.096-0.046l-19.576,11.301c-6.909,3.989-6.873,10.476,0.078,14.49l19.698,11.372
				c6.951,4.013,18.188,4.034,25.096,0.046l19.575-11.302C1087.382,1248.828,1087.346,1242.342,1080.395,1238.327z
				 M1137.355,1271.213l-19.698-11.372c-6.951-4.014-18.188-4.034-25.096-0.045l-19.575,11.301
				c-6.909,3.988-6.874,10.476,0.078,14.489l19.697,11.373c6.953,4.013,18.189,4.034,25.098,0.045l19.575-11.302
				C1144.343,1281.714,1144.307,1275.227,1137.355,1271.213z M1194.316,1304.101l-19.698-11.374
				c-6.952-4.013-18.187-4.033-25.096-0.044l-19.575,11.302c-6.91,3.987-6.875,10.475,0.078,14.488l19.697,11.373
				c6.951,4.013,18.188,4.033,25.096,0.045l19.575-11.302C1201.302,1314.601,1201.268,1308.114,1194.316,1304.101z
				 M1251.275,1336.986l-19.698-11.372c-6.951-4.013-18.188-4.034-25.095-0.046l-19.576,11.302
				c-6.907,3.989-6.873,10.476,0.078,14.489l19.698,11.373c6.951,4.013,18.188,4.034,25.097,0.045l19.575-11.302
				C1258.262,1347.487,1258.228,1341,1251.275,1336.986z M1308.235,1369.872l-19.697-11.372c-6.952-4.014-18.188-4.034-25.096-0.045
				l-19.575,11.301c-6.91,3.988-6.875,10.476,0.078,14.489l19.697,11.373c6.951,4.013,18.188,4.034,25.097,0.045l19.574-11.302
				C1315.223,1380.373,1315.188,1373.885,1308.235,1369.872z M1300.905,1417.131l19.698,11.373
				c6.953,4.013,18.188,4.033,25.097,0.044l19.574-11.301c6.909-3.988,6.874-10.476-0.078-14.489l-19.697-11.373
				c-6.951-4.013-18.188-4.033-25.097-0.044l-19.574,11.3C1293.919,1406.63,1293.954,1413.118,1300.905,1417.131z
				 M1422.156,1435.644l-19.697-11.373c-6.952-4.013-18.188-4.034-25.097-0.045l-19.574,11.302
				c-6.91,3.988-6.874,10.476,0.078,14.489l19.698,11.372c6.951,4.015,18.188,4.033,25.096,0.046l19.575-11.302
				C1429.143,1446.145,1429.108,1439.659,1422.156,1435.644z M1505.583,1483.81l-44.979-25.968
				c-6.951-4.013-18.188-4.034-25.097-0.046l-19.575,11.302c-6.909,3.988-6.873,10.476,0.079,14.49l44.979,25.968
				c6.952,4.013,18.189,4.033,25.096,0.044l19.576-11.302C1512.57,1494.311,1512.534,1487.823,1505.583,1483.81z M678.546,1118.731
				l44.979,25.968c6.951,4.013,18.188,4.034,25.096,0.045l19.575-11.301c6.909-3.989,6.873-10.476-0.078-14.49l-44.979-25.968
				c-6.951-4.013-18.188-4.033-25.096-0.045l-19.575,11.302C671.558,1108.229,671.593,1114.717,678.546,1118.731z M760.786,1166.212
				l19.697,11.373c6.952,4.013,18.189,4.034,25.097,0.045l19.575-11.302c6.909-3.988,6.873-10.476-0.078-14.488l-19.697-11.373
				c-6.953-4.015-18.188-4.034-25.097-0.045l-19.575,11.301C753.799,1155.711,753.834,1162.198,760.786,1166.212z M837.444,1210.471
				c6.953,4.013,18.189,4.033,25.097,0.045l19.576-11.302c6.907-3.988,6.873-10.475-0.08-14.488l-19.698-11.374
				c-6.951-4.013-18.188-4.033-25.096-0.044l-19.575,11.302c-6.909,3.987-6.874,10.475,0.078,14.488L837.444,1210.471z
				 M894.405,1243.357c6.951,4.013,18.187,4.034,25.096,0.045l19.575-11.302c6.907-3.988,6.873-10.475-0.079-14.489l-19.698-11.372
				c-6.952-4.013-18.188-4.034-25.097-0.046l-19.574,11.302c-6.909,3.989-6.874,10.476,0.079,14.489L894.405,1243.357z
				 M951.163,1239.08l-19.575,11.3c-6.909,3.989-6.874,10.477,0.078,14.49l19.697,11.373c6.953,4.013,18.188,4.033,25.098,0.045
				l19.573-11.302c6.91-3.988,6.875-10.476-0.079-14.489l-19.697-11.372C969.308,1235.111,958.071,1235.091,951.163,1239.08z
				 M1009.327,1271.271l-21.983,12.692c-6.244,3.604-6.212,9.468,0.071,13.094l22.12,12.771c6.283,3.628,16.438,3.646,22.681,0.042
				l21.983-12.693c6.244-3.604,6.212-9.468-0.072-13.096l-22.119-12.771C1025.725,1267.685,1015.571,1267.666,1009.327,1271.271z
				 M1066.288,1304.157l-21.983,12.69c-6.244,3.606-6.212,9.467,0.071,13.096l22.12,12.771c6.283,3.628,16.438,3.646,22.681,0.042
				l21.983-12.693c6.244-3.604,6.211-9.468-0.071-13.095l-22.121-12.772C1082.686,1300.57,1072.531,1300.551,1066.288,1304.157z
				 M1123.248,1337.042l-21.983,12.691c-6.244,3.605-6.212,9.468,0.072,13.095l22.119,12.772c6.283,3.628,16.438,3.646,22.681,0.041
				l21.982-12.692c6.244-3.605,6.212-9.468-0.07-13.094l-22.12-12.772C1139.646,1333.455,1129.491,1333.437,1123.248,1337.042z
				 M1180.207,1369.927l-21.982,12.693c-6.244,3.605-6.211,9.468,0.071,13.096l22.12,12.771c6.282,3.627,16.438,3.646,22.682,0.041
				l21.982-12.691c6.244-3.604,6.211-9.468-0.071-13.096l-22.121-12.771C1196.606,1366.342,1186.451,1366.324,1180.207,1369.927z
				 M1237.168,1402.814l-21.982,12.692c-6.245,3.604-6.213,9.468,0.071,13.096l22.119,12.771c6.283,3.628,16.438,3.645,22.681,0.042
				l21.982-12.693c6.245-3.605,6.213-9.468-0.07-13.096l-22.12-12.771C1253.566,1399.228,1243.412,1399.209,1237.168,1402.814z
				 M1317.019,1474.3l21.982-12.691c6.244-3.605,6.211-9.468-0.071-13.095l-22.12-12.772c-6.282-3.628-16.438-3.646-22.682-0.041
				l-21.982,12.691c-6.244,3.605-6.211,9.468,0.071,13.095l22.121,12.772C1300.62,1477.887,1310.776,1477.905,1317.019,1474.3z
				 M1373.979,1507.185l21.982-12.69c6.244-3.606,6.212-9.469-0.071-13.096l-22.121-12.771c-6.282-3.628-16.438-3.646-22.68-0.042
				l-21.982,12.693c-6.244,3.604-6.212,9.468,0.07,13.094l22.12,12.772C1357.58,1510.772,1367.735,1510.791,1373.979,1507.185z
				 M1454.036,1514.969l-22.12-12.771c-6.284-3.627-16.438-3.646-22.683-0.041l-21.982,12.691
				c-6.244,3.605-6.211,9.469,0.071,13.096l22.121,12.77c6.282,3.628,16.438,3.647,22.682,0.042l21.982-12.691
				C1460.351,1524.459,1460.318,1518.597,1454.036,1514.969z M624.576,1148.491l71.418,41.232
				c6.282,3.628,16.438,3.647,22.681,0.041l21.982-12.69c6.244-3.606,6.212-9.468-0.071-13.096l-71.417-41.233
				c-6.282-3.627-16.438-3.645-22.683-0.041l-21.982,12.691C618.261,1139,618.293,1144.863,624.576,1148.491z M730.834,1209.839
				l22.119,12.772c6.283,3.626,16.438,3.645,22.682,0.04l21.982-12.692c6.244-3.605,6.212-9.468-0.071-13.094l-22.12-12.771
				c-6.283-3.628-16.438-3.647-22.682-0.042l-21.982,12.693C724.519,1200.348,724.55,1206.212,730.834,1209.839z M787.793,1242.725
				l22.121,12.771c6.282,3.627,16.438,3.646,22.681,0.041l21.982-12.691c6.245-3.605,6.212-9.469-0.071-13.096l-22.12-12.77
				c-6.283-3.628-16.438-3.646-22.681-0.042l-21.982,12.692C781.478,1233.234,781.511,1239.097,787.793,1242.725z M844.754,1275.611
				l22.119,12.771c6.285,3.627,16.438,3.646,22.682,0.041l21.983-12.69c6.244-3.606,6.212-9.469-0.071-13.097l-22.119-12.771
				c-6.284-3.627-16.438-3.646-22.683-0.041l-21.982,12.69C838.439,1266.12,838.471,1271.983,844.754,1275.611z M946.516,1321.309
				l21.983-12.691c6.244-3.605,6.211-9.468-0.072-13.096l-22.12-12.771c-6.282-3.627-16.438-3.646-22.681-0.041l-21.983,12.693
				c-6.244,3.604-6.21,9.468,0.072,13.095l22.12,12.77C930.117,1324.895,940.273,1324.914,946.516,1321.309z M1003.476,1354.195
				l21.982-12.692c6.245-3.604,6.213-9.468-0.071-13.095l-22.12-12.77c-6.283-3.628-16.437-3.647-22.68-0.042l-21.983,12.692
				c-6.244,3.605-6.212,9.467,0.07,13.094l22.12,12.772C987.078,1357.781,997.232,1357.8,1003.476,1354.195z M1060.436,1387.081
				l21.984-12.693c6.243-3.604,6.211-9.468-0.071-13.095l-22.12-12.771c-6.283-3.628-16.438-3.647-22.683-0.041l-21.982,12.69
				c-6.245,3.606-6.212,9.469,0.071,13.097l22.12,12.771C1044.039,1390.668,1054.193,1390.685,1060.436,1387.081z
				 M1117.397,1419.967l21.982-12.69c6.244-3.605,6.211-9.468-0.071-13.096l-22.12-12.772c-6.282-3.626-16.438-3.645-22.68-0.04
				l-21.984,12.69c-6.243,3.605-6.211,9.468,0.072,13.096l22.12,12.771C1100.999,1423.554,1111.153,1423.572,1117.397,1419.967z
				 M1174.357,1452.854l21.982-12.693c6.244-3.604,6.212-9.468-0.07-13.095l-22.121-12.772c-6.283-3.627-16.438-3.645-22.682-0.04
				l-21.982,12.691c-6.244,3.605-6.212,9.468,0.071,13.095l22.12,12.771C1157.959,1456.44,1168.113,1456.458,1174.357,1452.854z
				 M1231.317,1485.74l21.982-12.693c6.244-3.605,6.212-9.467-0.07-13.094l-22.121-12.771c-6.282-3.628-16.438-3.647-22.682-0.042
				l-21.982,12.692c-6.244,3.606-6.212,9.468,0.07,13.096l22.121,12.772C1214.918,1489.326,1225.074,1489.344,1231.317,1485.74z
				 M1243.476,1505.813l22.12,12.771c6.283,3.628,16.438,3.646,22.681,0.041l21.982-12.691c6.244-3.605,6.212-9.468-0.071-13.095
				l-22.12-12.772c-6.282-3.628-16.438-3.646-22.682-0.041l-21.982,12.691C1237.161,1496.323,1237.192,1502.185,1243.476,1505.813z
				 M1401.277,1545.429l-56.249-32.476c-6.282-3.627-16.438-3.645-22.682-0.041l-21.982,12.692
				c-6.244,3.604-6.212,9.467,0.07,13.096l56.249,32.475c6.283,3.628,16.438,3.646,22.682,0.042l21.982-12.691
				C1407.593,1554.919,1407.561,1549.057,1401.277,1545.429z M572.037,1180.527l101.333,58.504
				c7.098,4.098,18.569,4.119,25.622,0.047l19.051-10.998c7.053-4.073,7.017-10.695-0.08-14.793l-101.334-58.505
				c-7.097-4.098-18.568-4.119-25.622-0.047l-19.052,10.999C564.904,1169.807,564.939,1176.43,572.037,1180.527z M711.159,1260.85
				l19.172,11.068c7.097,4.098,18.569,4.118,25.621,0.046l19.052-10.998c7.053-4.073,7.016-10.696-0.081-14.794l-19.171-11.067
				c-7.098-4.098-18.57-4.118-25.622-0.047l-19.051,11C704.026,1250.129,704.062,1256.752,711.159,1260.85z M768.119,1293.736
				l19.172,11.068c7.097,4.097,18.569,4.118,25.622,0.046l19.05-10.999c7.054-4.072,7.017-10.696-0.08-14.793l-19.171-11.068
				c-7.098-4.098-18.569-4.118-25.622-0.046l-19.052,10.999C760.986,1283.015,761.021,1289.639,768.119,1293.736z M825.079,1326.621
				l19.171,11.069c7.098,4.098,18.569,4.119,25.623,0.047l19.051-11c7.053-4.071,7.017-10.695-0.081-14.792l-19.171-11.068
				c-7.097-4.098-18.569-4.119-25.623-0.047l-19.05,10.998C817.946,1315.902,817.982,1322.524,825.079,1326.621z M882.039,1359.508
				l19.171,11.067c7.098,4.098,18.57,4.119,25.623,0.046l19.05-10.998c7.054-4.073,7.017-10.695-0.08-14.793l-19.171-11.068
				c-7.098-4.098-18.569-4.119-25.622-0.046l-19.051,10.998C874.905,1348.787,874.942,1355.41,882.039,1359.508z M939,1392.393
				l19.171,11.07c7.097,4.097,18.568,4.118,25.622,0.046l19.051-10.999c7.053-4.072,7.017-10.696-0.081-14.793l-19.171-11.069
				c-7.097-4.098-18.569-4.118-25.623-0.046l-19.05,10.999C931.867,1381.672,931.902,1388.296,939,1392.393z M995.96,1425.279
				l19.171,11.068c7.098,4.098,18.57,4.118,25.623,0.047l19.051-11c7.053-4.071,7.017-10.695-0.081-14.792l-19.171-11.069
				c-7.097-4.097-18.569-4.118-25.622-0.046l-19.051,10.999C988.826,1414.558,988.863,1421.182,995.96,1425.279z M1052.92,1458.165
				l19.172,11.068c7.097,4.098,18.569,4.119,25.622,0.046l19.051-10.999c7.054-4.072,7.017-10.695-0.08-14.793l-19.172-11.068
				c-7.098-4.098-18.569-4.119-25.622-0.047l-19.051,11C1045.787,1447.446,1045.823,1454.067,1052.92,1458.165z M1109.881,1491.052
				l19.171,11.068c7.097,4.097,18.568,4.119,25.623,0.046l19.05-10.998c7.053-4.073,7.017-10.696-0.081-14.793l-19.171-11.068
				c-7.097-4.098-18.568-4.119-25.622-0.047l-19.051,10.999C1102.747,1480.331,1102.783,1486.954,1109.881,1491.052z
				 M1166.84,1523.938l19.172,11.068c7.098,4.098,18.569,4.118,25.622,0.047l19.051-11c7.054-4.071,7.017-10.695-0.08-14.792
				l-19.172-11.069c-7.097-4.097-18.569-4.118-25.622-0.046l-19.05,10.999C1159.707,1513.217,1159.743,1519.84,1166.84,1523.938z
				 M1223.801,1556.824l19.171,11.068c7.097,4.098,18.569,4.118,25.623,0.046l19.05-10.999c7.053-4.072,7.017-10.695-0.08-14.793
				l-19.171-11.068c-7.098-4.097-18.569-4.118-25.623-0.046l-19.051,10.999C1216.668,1546.103,1216.703,1552.726,1223.801,1556.824z
				 M1345.791,1575.762l-19.173-11.068c-7.097-4.097-18.569-4.118-25.621-0.047l-19.052,11c-7.053,4.072-7.017,10.695,0.08,14.792
				l19.173,11.07c7.097,4.097,18.569,4.118,25.621,0.046l19.051-10.999C1352.922,1586.483,1352.886,1579.859,1345.791,1575.762z
				 M608.323,1210.906l-44.452-25.665c-7.097-4.097-18.569-4.118-25.62-0.046l-19.052,10.999
				c-7.053,4.072-7.016,10.696,0.081,14.793l44.452,25.663c7.097,4.098,18.569,4.119,25.621,0.046l19.052-10.998
				C615.457,1221.626,615.42,1215.003,608.323,1210.906z M665.284,1243.792l-19.171-11.068c-7.098-4.098-18.569-4.118-25.622-0.047
				l-19.052,11c-7.052,4.071-7.017,10.695,0.081,14.792l19.172,11.069c7.096,4.096,18.569,4.118,25.622,0.046l19.051-10.999
				C672.417,1254.513,672.381,1247.889,665.284,1243.792z M722.244,1276.678l-19.171-11.07c-7.098-4.097-18.569-4.118-25.622-0.046
				l-19.051,10.999c-7.053,4.072-7.018,10.696,0.08,14.793l19.172,11.068c7.097,4.098,18.569,4.118,25.622,0.047l19.051-11.001
				C729.378,1287.399,729.342,1280.775,722.244,1276.678z M1120.966,1506.88l-360.933-208.385
				c-7.098-4.097-18.569-4.118-25.622-0.046l-19.051,10.999c-7.053,4.072-7.017,10.695,0.08,14.793l360.933,208.384
				c7.097,4.097,18.569,4.118,25.621,0.047l19.052-11C1128.1,1517.601,1128.063,1510.977,1120.966,1506.88z M1177.925,1539.765
				l-19.171-11.068c-7.097-4.097-18.568-4.117-25.622-0.045l-19.052,10.998c-7.052,4.073-7.016,10.695,0.082,14.794l19.171,11.068
				c7.097,4.098,18.569,4.118,25.622,0.046l19.051-10.999C1185.059,1550.486,1185.024,1543.863,1177.925,1539.765z
				 M1234.887,1572.651l-19.173-11.069c-7.096-4.098-18.568-4.117-25.621-0.046l-19.05,10.999
				c-7.054,4.072-7.017,10.695,0.08,14.793l19.171,11.069c7.098,4.097,18.569,4.118,25.622,0.046l19.051-10.999
				C1242.019,1583.372,1241.984,1576.749,1234.887,1572.651z M1293.031,1606.222l-19.171-11.068
				c-7.098-4.098-18.569-4.118-25.622-0.047l-19.051,11.001c-7.053,4.071-7.019,10.695,0.08,14.792l19.172,11.07
				c7.097,4.097,18.569,4.118,25.622,0.046l19.052-10.999C1300.165,1616.943,1300.129,1610.319,1293.031,1606.222z"/>
			<path style="fill:#D1EBFF;" d="M782.533,1051.625l48.034,27.73c6.109,3.527,15.981,3.545,22.051,0.041
				c6.07-3.505,6.039-9.204-0.069-12.731l-48.033-27.732c-6.109-3.526-15.981-3.544-22.052-0.039
				C776.394,1042.397,776.425,1048.097,782.533,1051.625z M864.774,1099.106l22.753,13.136c6.109,3.526,15.981,3.544,22.051,0.04
				c6.071-3.505,6.039-9.205-0.069-12.731l-22.753-13.136c-6.109-3.526-15.981-3.544-22.051-0.04
				C858.635,1089.879,858.666,1095.579,864.774,1099.106z M921.734,1131.992l22.752,13.136c6.11,3.526,15.982,3.543,22.052,0.04
				c6.07-3.505,6.039-9.206-0.068-12.731l-22.753-13.136c-6.108-3.526-15.981-3.544-22.052-0.04
				C915.595,1122.765,915.627,1128.465,921.734,1131.992z M978.695,1164.877l22.753,13.136c6.109,3.527,15.981,3.545,22.051,0.041
				c6.071-3.506,6.039-9.206-0.069-12.732l-22.753-13.135c-6.109-3.527-15.981-3.545-22.051-0.041
				C972.555,1155.651,972.586,1161.35,978.695,1164.877z M1035.655,1197.764l22.752,13.135c6.11,3.526,15.982,3.545,22.052,0.04
				c6.071-3.505,6.039-9.204-0.068-12.731l-22.754-13.135c-6.108-3.527-15.98-3.545-22.051-0.041
				C1029.516,1188.537,1029.546,1194.237,1035.655,1197.764z M1092.615,1230.65l22.753,13.137c6.109,3.526,15.981,3.543,22.052,0.04
				c6.07-3.506,6.038-9.206-0.069-12.732l-22.754-13.136c-6.108-3.526-15.98-3.544-22.051-0.039
				C1086.476,1221.422,1086.507,1227.123,1092.615,1230.65z M1149.576,1263.535l22.752,13.136c6.11,3.528,15.981,3.544,22.051,0.04
				c6.071-3.504,6.041-9.205-0.069-12.731l-22.752-13.136c-6.11-3.526-15.981-3.544-22.051-0.04
				C1143.436,1254.309,1143.467,1260.009,1149.576,1263.535z M1206.535,1296.422l22.753,13.136
				c6.109,3.526,15.981,3.545,22.052,0.04c6.07-3.505,6.038-9.205-0.069-12.731l-22.754-13.136
				c-6.108-3.527-15.98-3.544-22.051-0.04C1200.396,1287.195,1200.428,1292.895,1206.535,1296.422z M1263.496,1329.309
				l22.753,13.135c6.108,3.525,15.98,3.544,22.052,0.039c6.07-3.504,6.039-9.204-0.07-12.731l-22.752-13.135
				c-6.109-3.526-15.981-3.544-22.051-0.04C1257.357,1320.081,1257.387,1325.781,1263.496,1329.309z M1320.457,1362.194
				l22.752,13.136c6.109,3.526,15.982,3.544,22.052,0.04s6.039-9.205-0.069-12.731l-22.753-13.136
				c-6.109-3.526-15.981-3.545-22.051-0.04C1314.317,1352.967,1314.347,1358.667,1320.457,1362.194z M1377.416,1395.08
				l22.753,13.136c6.109,3.526,15.981,3.544,22.051,0.04c6.071-3.505,6.039-9.205-0.069-12.731l-22.752-13.136
				c-6.109-3.528-15.981-3.544-22.051-0.04C1371.278,1385.853,1371.307,1391.553,1377.416,1395.08z M1434.377,1427.966
				l22.753,13.135c6.108,3.526,15.98,3.545,22.051,0.04c6.069-3.503,6.039-9.204-0.069-12.731l-22.753-13.136
				c-6.109-3.527-15.981-3.543-22.052-0.04C1428.237,1418.739,1428.269,1424.439,1434.377,1427.966z M1492.522,1461.536
				l22.753,13.136c6.109,3.526,15.981,3.544,22.051,0.04c6.071-3.505,6.039-9.205-0.069-12.731l-22.752-13.136
				c-6.109-3.526-15.981-3.544-22.052-0.04C1486.383,1452.309,1486.413,1458.009,1492.522,1461.536z M731.303,1082.965L751,1094.338
				c6.951,4.013,18.189,4.033,25.097,0.045l19.575-11.302c6.909-3.987,6.873-10.476-0.078-14.489l-19.697-11.372
				c-6.952-4.013-18.189-4.034-25.097-0.046l-19.575,11.302C724.316,1072.465,724.35,1078.952,731.303,1082.965z M833.058,1127.27
				l19.575-11.301c6.909-3.989,6.874-10.477-0.078-14.49l-19.697-11.372c-6.951-4.013-18.188-4.034-25.097-0.046l-19.575,11.302
				c-6.909,3.989-6.873,10.476,0.078,14.49l19.697,11.371C814.913,1131.238,826.149,1131.258,833.058,1127.27z M845.223,1148.738
				l19.698,11.372c6.951,4.013,18.188,4.034,25.096,0.046l19.575-11.302c6.909-3.989,6.873-10.476-0.078-14.489l-19.697-11.372
				c-6.952-4.014-18.188-4.034-25.097-0.046l-19.575,11.301C838.236,1138.236,838.272,1144.724,845.223,1148.738z M902.184,1181.624
				l19.697,11.372c6.952,4.013,18.189,4.034,25.097,0.046l19.575-11.302c6.91-3.989,6.873-10.476-0.078-14.489l-19.697-11.373
				c-6.951-4.014-18.188-4.033-25.097-0.045l-19.575,11.302C895.197,1171.122,895.232,1177.609,902.184,1181.624z
				 M1023.435,1200.137l-19.697-11.372c-6.952-4.013-18.187-4.034-25.097-0.046l-19.575,11.302
				c-6.908,3.988-6.873,10.475,0.08,14.488l19.696,11.373c6.953,4.014,18.189,4.034,25.097,0.046l19.576-11.303
				C1030.422,1210.638,1030.387,1204.15,1023.435,1200.137z M1080.395,1233.022l-19.697-11.372
				c-6.952-4.013-18.188-4.033-25.096-0.045l-19.576,11.301c-6.909,3.989-6.873,10.476,0.078,14.49l19.698,11.372
				c6.951,4.013,18.188,4.034,25.096,0.045l19.575-11.301C1087.382,1243.523,1087.346,1237.036,1080.395,1233.022z
				 M1137.355,1265.908l-19.698-11.372c-6.951-4.014-18.188-4.034-25.096-0.045l-19.575,11.301
				c-6.909,3.988-6.874,10.476,0.078,14.489l19.697,11.373c6.953,4.013,18.189,4.034,25.098,0.045l19.575-11.302
				C1144.343,1276.409,1144.307,1269.921,1137.355,1265.908z M1194.316,1298.795l-19.698-11.374
				c-6.952-4.013-18.187-4.033-25.096-0.044l-19.575,11.302c-6.91,3.987-6.875,10.475,0.078,14.488l19.697,11.373
				c6.951,4.013,18.188,4.033,25.096,0.045l19.575-11.302C1201.302,1309.295,1201.268,1302.809,1194.316,1298.795z
				 M1251.275,1331.68l-19.698-11.372c-6.951-4.013-18.188-4.034-25.095-0.046l-19.576,11.302
				c-6.907,3.989-6.873,10.476,0.078,14.489l19.698,11.373c6.951,4.013,18.188,4.034,25.097,0.045l19.575-11.302
				C1258.262,1342.181,1258.228,1335.695,1251.275,1331.68z M1308.235,1364.566l-19.697-11.372
				c-6.952-4.015-18.188-4.034-25.096-0.045l-19.575,11.301c-6.91,3.988-6.875,10.476,0.078,14.489l19.697,11.373
				c6.951,4.013,18.188,4.034,25.097,0.045l19.574-11.302C1315.223,1375.067,1315.188,1368.58,1308.235,1364.566z
				 M1300.905,1411.826l19.698,11.372c6.953,4.014,18.188,4.034,25.097,0.045l19.574-11.301c6.909-3.988,6.874-10.476-0.078-14.49
				l-19.697-11.372c-6.951-4.013-18.188-4.033-25.097-0.045l-19.574,11.301C1293.919,1401.325,1293.954,1407.812,1300.905,1411.826z
				 M1422.156,1430.339l-19.697-11.373c-6.952-4.013-18.188-4.034-25.097-0.045l-19.574,11.302
				c-6.91,3.988-6.874,10.476,0.078,14.489l19.698,11.372c6.951,4.013,18.188,4.033,25.096,0.046l19.575-11.302
				C1429.143,1440.84,1429.108,1434.353,1422.156,1430.339z M1505.583,1478.505l-44.979-25.968
				c-6.951-4.013-18.188-4.034-25.097-0.046l-19.575,11.302c-6.909,3.988-6.873,10.476,0.079,14.49l44.979,25.968
				c6.952,4.013,18.189,4.033,25.096,0.044l19.576-11.302C1512.57,1489.006,1512.534,1482.518,1505.583,1478.505z M678.546,1113.425
				l44.979,25.968c6.951,4.013,18.188,4.034,25.096,0.045l19.575-11.301c6.909-3.989,6.873-10.476-0.078-14.49l-44.979-25.968
				c-6.951-4.013-18.188-4.033-25.096-0.045l-19.575,11.302C671.558,1102.923,671.593,1109.412,678.546,1113.425z M760.786,1160.906
				l19.697,11.373c6.952,4.013,18.189,4.034,25.097,0.045l19.575-11.302c6.909-3.988,6.873-10.476-0.078-14.488l-19.697-11.373
				c-6.953-4.014-18.188-4.034-25.097-0.045l-19.575,11.301C753.799,1150.406,753.834,1156.893,760.786,1160.906z M837.444,1205.166
				c6.953,4.013,18.189,4.033,25.097,0.045l19.576-11.302c6.907-3.988,6.873-10.475-0.08-14.488l-19.698-11.374
				c-6.951-4.013-18.188-4.033-25.096-0.044l-19.575,11.302c-6.909,3.987-6.874,10.475,0.078,14.488L837.444,1205.166z
				 M894.405,1238.052c6.951,4.013,18.187,4.034,25.096,0.045l19.575-11.302c6.907-3.988,6.873-10.475-0.079-14.489l-19.698-11.372
				c-6.952-4.013-18.188-4.034-25.097-0.046l-19.574,11.302c-6.909,3.989-6.874,10.476,0.079,14.489L894.405,1238.052z
				 M951.163,1233.775l-19.575,11.3c-6.909,3.989-6.874,10.477,0.078,14.49l19.697,11.373c6.953,4.013,18.188,4.033,25.098,0.045
				l19.573-11.302c6.91-3.988,6.875-10.476-0.079-14.489l-19.697-11.372C969.308,1229.805,958.071,1229.785,951.163,1233.775z
				 M1009.327,1265.966l-21.983,12.691c-6.244,3.604-6.212,9.468,0.071,13.095l22.12,12.771c6.283,3.628,16.438,3.646,22.681,0.042
				l21.983-12.693c6.244-3.604,6.212-9.467-0.072-13.096l-22.119-12.771C1025.725,1262.379,1015.571,1262.36,1009.327,1265.966z
				 M1066.288,1298.852l-21.983,12.69c-6.244,3.606-6.212,9.468,0.071,13.096l22.12,12.771c6.283,3.628,16.438,3.646,22.681,0.042
				l21.983-12.693c6.244-3.604,6.211-9.467-0.071-13.094l-22.121-12.772C1082.686,1295.265,1072.531,1295.246,1066.288,1298.852z
				 M1123.248,1331.737l-21.983,12.691c-6.244,3.605-6.212,9.468,0.072,13.095l22.119,12.772c6.283,3.628,16.438,3.646,22.681,0.041
				l21.982-12.691c6.244-3.605,6.212-9.468-0.07-13.095l-22.12-12.772C1139.646,1328.15,1129.491,1328.132,1123.248,1331.737z
				 M1180.207,1364.622l-21.982,12.693c-6.244,3.604-6.211,9.467,0.071,13.096l22.12,12.771c6.282,3.627,16.438,3.646,22.682,0.041
				l21.982-12.692c6.244-3.605,6.211-9.468-0.071-13.096l-22.121-12.771C1196.606,1361.037,1186.451,1361.019,1180.207,1364.622z
				 M1237.168,1397.509l-21.982,12.691c-6.245,3.604-6.213,9.468,0.071,13.096l22.119,12.771c6.283,3.628,16.438,3.645,22.681,0.042
				l21.982-12.693c6.245-3.605,6.213-9.468-0.07-13.096l-22.12-12.771C1253.566,1393.923,1243.412,1393.904,1237.168,1397.509z
				 M1317.019,1468.994l21.982-12.691c6.244-3.605,6.211-9.468-0.071-13.095l-22.12-12.772c-6.282-3.628-16.438-3.646-22.682-0.041
				l-21.982,12.692c-6.244,3.605-6.211,9.468,0.071,13.094l22.121,12.772C1300.62,1472.581,1310.776,1472.599,1317.019,1468.994z
				 M1373.979,1501.879l21.982-12.69c6.244-3.606,6.212-9.469-0.071-13.096l-22.121-12.771c-6.282-3.628-16.438-3.646-22.68-0.042
				l-21.982,12.693c-6.244,3.604-6.212,9.468,0.07,13.095l22.12,12.772C1357.58,1505.467,1367.735,1505.485,1373.979,1501.879z
				 M1454.036,1509.663l-22.12-12.772c-6.284-3.626-16.438-3.645-22.683-0.04l-21.982,12.692c-6.244,3.605-6.211,9.469,0.071,13.096
				l22.121,12.77c6.282,3.628,16.438,3.647,22.682,0.042l21.982-12.691C1460.351,1519.154,1460.318,1513.291,1454.036,1509.663z
				 M624.576,1143.186l71.418,41.232c6.282,3.628,16.438,3.647,22.681,0.041l21.982-12.69c6.244-3.606,6.212-9.469-0.071-13.096
				l-71.417-41.233c-6.282-3.627-16.438-3.645-22.683-0.041l-21.982,12.692C618.261,1133.694,618.293,1139.558,624.576,1143.186z
				 M730.834,1204.533l22.119,12.772c6.283,3.626,16.438,3.645,22.682,0.04l21.982-12.691c6.244-3.605,6.212-9.468-0.071-13.095
				l-22.12-12.771c-6.283-3.628-16.438-3.647-22.682-0.042l-21.982,12.693C724.519,1195.043,724.55,1200.906,730.834,1204.533z
				 M787.793,1237.42l22.121,12.771c6.282,3.627,16.438,3.646,22.681,0.041l21.982-12.692c6.245-3.605,6.212-9.469-0.071-13.096
				l-22.12-12.77c-6.283-3.628-16.438-3.647-22.681-0.042l-21.982,12.691C781.478,1227.929,781.511,1233.791,787.793,1237.42z
				 M844.754,1270.306l22.119,12.771c6.285,3.627,16.438,3.646,22.682,0.041l21.983-12.69c6.244-3.606,6.212-9.469-0.071-13.097
				l-22.119-12.771c-6.284-3.627-16.438-3.646-22.683-0.041l-21.982,12.69C838.439,1260.815,838.471,1266.678,844.754,1270.306z
				 M946.516,1316.004l21.983-12.691c6.244-3.605,6.211-9.468-0.072-13.096l-22.12-12.771c-6.282-3.627-16.438-3.646-22.681-0.041
				l-21.983,12.692c-6.244,3.605-6.21,9.469,0.072,13.096l22.12,12.77C930.117,1319.59,940.273,1319.609,946.516,1316.004z
				 M1003.476,1348.89l21.982-12.693c6.245-3.604,6.213-9.467-0.071-13.095l-22.12-12.77c-6.283-3.628-16.437-3.647-22.68-0.042
				l-21.983,12.691c-6.244,3.605-6.212,9.468,0.07,13.095l22.12,12.772C987.078,1352.476,997.232,1352.495,1003.476,1348.89z
				 M1060.436,1381.776l21.984-12.693c6.243-3.604,6.211-9.468-0.071-13.094l-22.12-12.771c-6.283-3.628-16.438-3.647-22.683-0.041
				l-21.982,12.69c-6.245,3.606-6.212,9.469,0.071,13.096l22.12,12.772C1044.039,1385.362,1054.193,1385.38,1060.436,1381.776z
				 M1117.397,1414.661l21.982-12.69c6.244-3.605,6.211-9.468-0.071-13.096l-22.12-12.772c-6.282-3.626-16.438-3.645-22.68-0.04
				l-21.984,12.69c-6.243,3.605-6.211,9.468,0.072,13.096l22.12,12.771C1100.999,1418.248,1111.153,1418.266,1117.397,1414.661z
				 M1174.357,1447.548l21.982-12.693c6.244-3.604,6.212-9.468-0.07-13.095l-22.121-12.772c-6.283-3.627-16.438-3.645-22.682-0.04
				l-21.982,12.691c-6.244,3.605-6.212,9.468,0.071,13.095l22.12,12.771C1157.959,1451.134,1168.113,1451.152,1174.357,1447.548z
				 M1231.317,1480.434l21.982-12.693c6.244-3.605,6.212-9.468-0.07-13.094l-22.121-12.771c-6.282-3.628-16.438-3.647-22.682-0.042
				l-21.982,12.691c-6.244,3.606-6.212,9.468,0.07,13.096l22.121,12.772C1214.918,1484.021,1225.074,1484.038,1231.317,1480.434z
				 M1243.476,1500.508l22.12,12.771c6.283,3.628,16.438,3.646,22.681,0.041l21.982-12.691c6.244-3.605,6.212-9.468-0.071-13.095
				l-22.12-12.772c-6.282-3.628-16.438-3.646-22.682-0.041l-21.982,12.692C1237.161,1491.017,1237.192,1496.88,1243.476,1500.508z
				 M1401.277,1540.123l-56.249-32.476c-6.282-3.627-16.438-3.645-22.682-0.041l-21.982,12.691
				c-6.244,3.604-6.212,9.468,0.07,13.096l56.249,32.475c6.283,3.628,16.438,3.646,22.682,0.042l21.982-12.691
				C1407.593,1549.614,1407.561,1543.751,1401.277,1540.123z M572.037,1175.222l101.333,58.504
				c7.098,4.098,18.569,4.119,25.622,0.047l19.051-10.998c7.053-4.073,7.017-10.695-0.08-14.793l-101.334-58.505
				c-7.097-4.098-18.568-4.119-25.622-0.047l-19.052,10.999C564.904,1164.501,564.939,1171.125,572.037,1175.222z M711.159,1255.544
				l19.172,11.068c7.097,4.097,18.569,4.118,25.621,0.046l19.052-10.999c7.053-4.072,7.016-10.695-0.081-14.793l-19.171-11.068
				c-7.098-4.098-18.57-4.118-25.622-0.047l-19.051,11C704.026,1244.823,704.062,1251.447,711.159,1255.544z M768.119,1288.429
				l19.172,11.069c7.097,4.097,18.569,4.118,25.622,0.046l19.05-10.999c7.054-4.072,7.017-10.696-0.08-14.793l-19.171-11.068
				c-7.098-4.098-18.569-4.118-25.622-0.046l-19.052,11C760.986,1277.709,761.021,1284.332,768.119,1288.429z M825.079,1321.315
				l19.171,11.068c7.098,4.098,18.569,4.119,25.623,0.047l19.051-11c7.053-4.071,7.017-10.695-0.081-14.792l-19.171-11.067
				c-7.097-4.098-18.569-4.12-25.623-0.047l-19.05,10.998C817.946,1310.597,817.982,1317.218,825.079,1321.315z M882.039,1354.203
				l19.171,11.067c7.098,4.098,18.57,4.119,25.623,0.046l19.05-10.998c7.054-4.073,7.017-10.695-0.08-14.793l-19.171-11.068
				c-7.098-4.098-18.569-4.119-25.622-0.046l-19.051,10.998C874.905,1343.482,874.942,1350.104,882.039,1354.203z M939,1387.088
				l19.171,11.07c7.097,4.097,18.568,4.118,25.622,0.046l19.051-10.999c7.053-4.072,7.017-10.696-0.081-14.793l-19.171-11.068
				c-7.097-4.098-18.569-4.118-25.623-0.046l-19.05,10.999C931.867,1376.367,931.902,1382.99,939,1387.088z M995.96,1419.974
				l19.171,11.069c7.098,4.098,18.57,4.118,25.623,0.047l19.051-11c7.053-4.071,7.017-10.695-0.081-14.792l-19.171-11.07
				c-7.097-4.097-18.569-4.118-25.622-0.046l-19.051,10.999C988.826,1409.253,988.863,1415.877,995.96,1419.974z M1052.92,1452.86
				l19.172,11.068c7.097,4.098,18.569,4.119,25.622,0.046l19.051-10.999c7.054-4.072,7.017-10.695-0.08-14.793l-19.172-11.068
				c-7.098-4.098-18.569-4.119-25.622-0.047l-19.051,10.999C1045.787,1442.14,1045.823,1448.762,1052.92,1452.86z
				 M1109.881,1485.746l19.171,11.068c7.097,4.097,18.568,4.119,25.623,0.046l19.05-10.998c7.053-4.073,7.017-10.696-0.081-14.793
				l-19.171-11.069c-7.097-4.098-18.568-4.119-25.622-0.047l-19.051,10.999C1102.747,1475.025,1102.783,1481.649,1109.881,1485.746z
				 M1166.84,1518.632l19.172,11.068c7.098,4.098,18.569,4.118,25.622,0.047l19.051-11c7.054-4.071,7.017-10.695-0.08-14.792
				l-19.172-11.069c-7.097-4.097-18.569-4.118-25.622-0.046l-19.05,11C1159.707,1507.911,1159.743,1514.535,1166.84,1518.632z
				 M1223.801,1551.518l19.171,11.068c7.097,4.098,18.569,4.118,25.623,0.046l19.05-10.999c7.053-4.072,7.017-10.695-0.08-14.793
				l-19.171-11.068c-7.098-4.097-18.569-4.118-25.623-0.046l-19.051,10.999C1216.668,1540.797,1216.703,1547.42,1223.801,1551.518z
				 M1345.791,1570.457l-19.173-11.068c-7.097-4.097-18.569-4.118-25.621-0.047l-19.052,11c-7.053,4.072-7.017,10.695,0.08,14.792
				l19.173,11.069c7.097,4.097,18.569,4.118,25.621,0.046l19.051-10.999C1352.922,1581.177,1352.886,1574.554,1345.791,1570.457z
				 M608.323,1205.6l-44.452-25.665c-7.097-4.097-18.569-4.118-25.62-0.046l-19.052,11c-7.053,4.072-7.016,10.696,0.081,14.793
				l44.452,25.663c7.097,4.098,18.569,4.119,25.621,0.046l19.052-10.998C615.457,1216.32,615.42,1209.698,608.323,1205.6z
				 M665.284,1238.486l-19.171-11.068c-7.098-4.098-18.569-4.118-25.622-0.047l-19.052,11c-7.052,4.071-7.017,10.695,0.081,14.792
				l19.172,11.07c7.096,4.096,18.569,4.118,25.622,0.046l19.051-10.999C672.417,1249.207,672.381,1242.584,665.284,1238.486z
				 M722.244,1271.373l-19.171-11.069c-7.098-4.097-18.569-4.118-25.622-0.046l-19.051,10.999
				c-7.053,4.072-7.018,10.696,0.08,14.793l19.172,11.068c7.097,4.098,18.569,4.118,25.622,0.047l19.051-11
				C729.378,1282.094,729.342,1275.47,722.244,1271.373z M1120.966,1501.574l-360.933-208.385
				c-7.098-4.097-18.569-4.118-25.622-0.046l-19.051,10.999c-7.053,4.072-7.017,10.695,0.08,14.793l360.933,208.384
				c7.097,4.097,18.569,4.118,25.621,0.047l19.052-11C1128.1,1512.295,1128.063,1505.672,1120.966,1501.574z M1177.925,1534.46
				l-19.171-11.068c-7.097-4.097-18.568-4.117-25.622-0.045l-19.052,10.998c-7.052,4.073-7.016,10.695,0.082,14.793l19.171,11.068
				c7.097,4.098,18.569,4.118,25.622,0.046l19.051-11C1185.059,1545.181,1185.024,1538.558,1177.925,1534.46z M1234.887,1567.346
				l-19.173-11.068c-7.096-4.098-18.568-4.118-25.621-0.046l-19.05,10.999c-7.054,4.072-7.017,10.695,0.08,14.793l19.171,11.068
				c7.098,4.097,18.569,4.118,25.622,0.046l19.051-10.999C1242.019,1578.067,1241.984,1571.444,1234.887,1567.346z
				 M1293.031,1600.917l-19.171-11.069c-7.098-4.098-18.569-4.118-25.622-0.047l-19.051,11c-7.053,4.071-7.019,10.695,0.08,14.792
				l19.172,11.069c7.097,4.097,18.569,4.118,25.622,0.046l19.052-10.999C1300.165,1611.638,1300.129,1605.014,1293.031,1600.917z"/>
			<g>
				<path style="fill:#D1EBFF;" d="M1604.239,1444.961l-754.554-435.899c-29.214-16.865-52.894-62.114-52.894-101.065V316.064
					c0-38.95,23.68-56.852,52.894-39.986l754.554,435.9c29.214,16.865,52.896,62.114,52.896,101.064v591.932
					C1657.135,1443.924,1633.453,1461.828,1604.239,1444.961z"/>
				<path style="fill:#03336E;" d="M1611.051,1414.537L864.548,983.338c-23.509-14.939-38.049-44.792-38.049-75.341V313.192
					c0-7.237,7.874-11.733,14.121-8.077c0.728,0.427,748.76,432.582,748.76,432.582c27.986,16.132,38.047,44.797,38.047,75.344
					v593.419c0,7.764-8.393,12.629-15.137,8.785C1611.756,1414.942,1611.331,1414.699,1611.051,1414.537z"/>
				<path style="fill:#03336E;" d="M1589.379,737.697c0,0-748.032-432.155-748.76-432.582c-6.247-3.656-14.121,0.839-14.121,8.077
					v594.805c0,30.549,14.541,60.402,38.049,75.341c0,0,747.208,431.603,747.741,431.907c6.744,3.844,15.137-1.022,15.137-8.785
					V813.042C1627.426,782.494,1617.365,753.831,1589.379,737.697z M1621.484,1406.462c0,2.584-2.179,4.186-4.198,4.186
					c-0.708,0-1.401-0.189-2.057-0.563L867.52,978.195c-21.227-13.497-35.08-41.101-35.08-70.199V313.193
					c0-2.122,1.793-3.435,3.454-3.435c0.593,0,1.173,0.162,1.724,0.484l748.785,432.598c28.997,16.714,35.081,47.403,35.081,70.202
					V1406.462z"/>
				<path style="fill:#2672AB;" d="M1619.231,704.012L864.676,268.114c-11.557-6.674-22.249-7.904-30.952-4.543
					c-1.106,0.428-15.878,8.279-16.918,8.854c9.011-4.376,20.419-3.543,32.88,3.653l754.554,435.9
					c29.214,16.865,52.896,62.114,52.896,101.064v591.932c0,24.309-9.226,40.414-23.26,44.992c1.142,0.063,2.569-0.382,4.633-1.577
					c0.668-0.385,16.675-9.416,17.313-9.863c10.049-7.037,16.305-21.496,16.305-41.515V805.077
					C1672.125,766.126,1648.443,720.88,1619.231,704.012z"/>
				<path style="fill:#4F9FDB;" d="M1619.231,704.012L864.676,268.114c-11.557-6.674-22.249-7.904-30.952-4.543
					c-1.106,0.428-15.878,8.279-16.918,8.854c9.011-4.376,20.419-3.543,32.88,3.653l754.554,435.9L1619.231,704.012z"/>
				<path style="fill:#D1EBFF;" d="M1606.778,710.707L852.223,274.809c-11.978-6.918-22.99-7.903-31.859-4.072
					c7.568-1.199,16.259,0.631,25.513,5.975l754.556,435.899c29.212,16.866,52.893,62.113,52.893,101.065v591.932
					c0,22.978-8.278,38.549-21.034,44.059c16.318-2.588,27.381-19.353,27.381-45.963V811.773
					C1659.673,772.822,1635.99,727.573,1606.778,710.707z"/>
			</g>
		</g>
		<g>
			<polygon style="fill:#0FBAB8;" points="1038.714,772.176 1169.532,1074.762 1434.022,797.13 1330.838,709.811 1188.724,949.382 
				1121.614,788.33 			"/>
			<path style="fill:#4F9FDB;" d="M1227.761,1122.571l-9.804-11.533l9.731-4.261c12.046-6.497,23.518-12.273,34.376-17.751
				c73.878-37.233,114.318-55.452,123.707-187.901l18.453-16.147l0.199,15.156c-10.119,142.909-59.425,167.76-134.061,205.371
				c-10.714,5.407-22.031,11.11-33.917,17.509L1227.761,1122.571z"/>
			<path style="fill:#4F9FDB;" d="M1294.873,723.173c-24.004-24.761-46.765-52.92-67.724-83.763
				c-46.351,13.787-99.209,5.613-154.002-23.698l2.947,97.99l-18.689-3.657l-3.657-126.835l16.634,9.776
				c56.893,33.511,111.273,42.828,157.201,26.906l3.974-1.37l5.523,3.171l1.855,2.182c21.32,31.996,44.594,61.084,69.185,86.449
				L1294.873,723.173z"/>
		</g>
	</g>
</g>
</svg>
